<svg xmlns="http://www.w3.org/2000/svg" version="1.1" viewBox="342.32 347.8 336.18 331.81">
<g stroke-width="0.00" fill="none" stroke-linecap="butt">
<path stroke="#a5a5a6" vector-effect="non-scaling-stroke" d="   M 342.32 513.67   Q 342.32 521.45 342.32 525.92   Q 342.32 530.20 342.86 531.50   C 344.95 536.47 348.07 537.60 354.12 538.73   Q 363.31 540.44 376.11 543.31   A 0.93 0.92 89.9 0 1 376.80 544.01   Q 381.57 564.63 392.90 583.20   A 1.34 1.33 -44.8 0 1 392.89 584.62   Q 388.81 591.05 380.61 604.08   Q 377.20 609.49 377.09 612.41   Q 376.92 616.93 380.69 620.60   Q 391.64 631.24 399.61 639.13   Q 403.09 642.57 408.43 642.48   Q 411.44 642.42 417.15 638.47   Q 418.00 637.88 436.40 626.40   A 0.98 0.98 0.0 0 1 437.46 626.40   Q 456.82 638.91 478.96 644.06   A 0.87 0.86 89.9 0 1 479.61 644.72   Q 481.31 652.47 484.90 668.38   Q 486.29 674.57 487.93 676.25   Q 491.15 679.56 495.52 679.57   Q 518.16 679.58 524.49 679.61   Q 528.89 679.63 532.31 676.13   Q 534.11 674.29 535.42 668.00   Q 536.89 661.01 540.68 644.55   A 0.89 0.87 -0.1 0 1 541.36 643.88   Q 563.62 638.91 583.10 626.25   A 0.79 0.78 -45.3 0 1 583.94 626.24   Q 600.17 636.45 606.20 640.28   Q 614.55 645.58 621.59 638.08   Q 625.48 633.95 636.30 623.78   Q 642.03 618.39 642.92 615.66   Q 644.50 610.78 641.14 605.62   Q 635.54 597.04 627.83 584.55   A 1.19 1.19 0.0 0 1 627.83 583.31   Q 639.28 564.76 643.94 543.52   A 0.66 0.65 -88.5 0 1 644.45 543.03   Q 669.73 538.16 670.06 538.07   Q 675.13 536.80 677.17 533.21   Q 678.44 530.98 678.47 524.55   Q 678.50 519.16 678.50 513.73   Q 678.50 508.30 678.48 502.91   Q 678.45 496.49 677.18 494.25   Q 675.14 490.66 670.07 489.39   Q 669.74 489.30 644.46 484.42   A 0.66 0.65 88.6 0 1 643.95 483.93   Q 639.30 462.69 627.86 444.14   A 1.19 1.19 0.0 0 1 627.86 442.90   Q 635.57 430.41 641.18 421.83   Q 644.54 416.67 642.96 411.79   Q 642.07 409.06 636.34 403.67   Q 625.53 393.49 621.64 389.36   Q 614.60 381.86 606.25 387.16   Q 600.22 390.98 583.98 401.19   A 0.79 0.78 45.4 0 1 583.14 401.18   Q 563.67 388.51 541.41 383.53   A 0.89 0.87 0.1 0 1 540.73 382.86   Q 536.95 366.40 535.48 359.41   Q 534.17 353.12 532.37 351.28   Q 528.95 347.78 524.55 347.80   Q 518.22 347.82 495.58 347.82   Q 491.21 347.83 487.99 351.14   Q 486.35 352.82 484.96 359.01   Q 481.36 374.92 479.66 382.67   A 0.87 0.86 -89.9 0 1 479.01 383.33   Q 456.87 388.47 437.50 400.97   A 0.98 0.98 0.0 0 1 436.44 400.97   Q 418.05 389.48 417.20 388.89   Q 411.49 384.94 408.48 384.88   Q 403.14 384.79 399.66 388.23   Q 391.69 396.11 380.73 406.75   Q 376.96 410.42 377.13 414.94   Q 377.24 417.86 380.65 423.27   Q 388.84 436.30 392.92 442.73   A 1.34 1.33 44.8 0 1 392.93 444.15   Q 381.59 462.72 376.81 483.34   A 0.93 0.92 -89.9 0 1 376.12 484.04   Q 363.32 486.90 354.13 488.61   C 348.08 489.74 344.96 490.87 342.87 495.83   Q 342.33 497.13 342.32 501.41   Q 342.32 505.89 342.32 513.67"/>
<path stroke="#a5a5a6" vector-effect="non-scaling-stroke" d="   M 510.06 616.42   C 531.72 616.43 553.16 609.56 570.87 596.87   A 2.71 2.64 -62.1 0 1 572.42 596.37   L 597.56 596.37   A 0.59 0.59 0.0 0 0 598.15 595.78   L 598.15 572.35   A 2.80 2.77 61.5 0 1 598.58 570.86   Q 602.65 564.37 604.44 561.13   C 614.02 543.75 617.82 521.84 615.55 502.06   Q 612.60 476.46 598.74 456.29   A 2.94 2.87 -62.8 0 1 598.23 454.64   L 598.23 431.00   A 0.39 0.39 0.0 0 0 597.84 430.61   L 572.39 430.61   A 2.18 2.16 62.5 0 1 571.13 430.21   C 553.28 417.43 532.30 410.48 510.18 410.47   C 488.06 410.46 467.08 417.38 449.21 430.14   A 2.18 2.16 -62.4 0 1 447.95 430.54   L 422.50 430.51   A 0.39 0.39 0.0 0 0 422.11 430.90   L 422.08 454.54   A 2.94 2.87 62.9 0 1 421.57 456.19   Q 407.69 476.34 404.71 501.94   C 402.42 521.72 406.19 543.63 415.75 561.02   Q 417.54 564.27 421.60 570.76   A 2.80 2.77 -61.4 0 1 422.03 572.25   L 422.00 595.68   A 0.59 0.59 0.0 0 0 422.59 596.27   L 447.73 596.30   A 2.71 2.64 62.2 0 1 449.28 596.80   C 466.98 609.51 488.41 616.41 510.06 616.42"/>
<path stroke="#a5a5a6" vector-effect="non-scaling-stroke" d="   M 580.49 447.76   Q 580.65 447.93 580.65 448.02   Q 580.71 453.68 580.55 459.86   A 0.93 0.93 0.0 0 0 581.46 460.80   L 586.03 460.87   A 0.91 0.91 0.0 0 0 586.95 459.96   Q 586.85 451.12 586.95 441.88   Q 586.96 441.70 586.79 441.54   Q 586.60 441.34 586.42 441.34   Q 577.18 441.30 568.35 441.06   A 0.91 0.91 0.0 0 0 567.42 441.97   L 567.41 446.54   A 0.93 0.93 0.0 0 0 568.35 447.47   Q 574.53 447.41 580.19 447.54   Q 580.28 447.55 580.49 447.76"/>
<path stroke="#a5a5a6" vector-effect="non-scaling-stroke" d="   M 439.70 447.85   Q 439.91 447.63 440.00 447.63   Q 445.71 447.48 451.95 447.54   A 0.93 0.93 0.0 0 0 452.89 446.60   L 452.88 441.99   A 0.92 0.91 -0.7 0 0 451.94 441.07   Q 443.03 441.32 433.70 441.38   Q 433.53 441.38 433.33 441.58   Q 433.17 441.74 433.17 441.92   Q 433.29 451.24 433.20 460.16   A 0.92 0.91 89.7 0 0 434.13 461.08   L 438.74 461.01   A 0.93 0.93 0.0 0 0 439.66 460.05   Q 439.49 453.82 439.53 448.11   Q 439.53 448.02 439.70 447.85"/>
<path stroke="#a5a5a6" vector-effect="non-scaling-stroke" d="   M 559.1157 442.3566   A 0.97 0.97 0.0 0 0 558.1390 441.3934   L 547.6193 441.4668   A 0.97 0.97 0.0 0 0 546.6560 442.4435   L 546.6843 446.4834   A 0.97 0.97 0.0 0 0 547.6610 447.4466   L 558.1807 447.3732   A 0.97 0.97 0.0 0 0 559.1440 446.3965   L 559.1157 442.3566"/>
<path stroke="#a5a5a6" vector-effect="non-scaling-stroke" d="   M 473.3573 442.3410   A 0.76 0.76 0.0 0 0 472.6000 441.5784   L 462.0800 441.5417   A 0.76 0.76 0.0 0 0 461.3174 442.2990   L 461.3027 446.4990   A 0.76 0.76 0.0 0 0 462.0600 447.2616   L 472.5800 447.2983   A 0.76 0.76 0.0 0 0 473.3426 446.5410   L 473.3573 442.3410"/>
<path stroke="#a5a5a6" vector-effect="non-scaling-stroke" d="   M 494.7424 442.1991   A 0.60 0.60 0.0 0 0 494.1403 441.6012   L 483.3603 441.6388   A 0.60 0.60 0.0 0 0 482.7624 442.2409   L 482.7776 446.6009   A 0.60 0.60 0.0 0 0 483.3797 447.1988   L 494.1597 447.1612   A 0.60 0.60 0.0 0 0 494.7576 446.5591   L 494.7424 442.1991"/>
<path stroke="#a5a5a6" vector-effect="non-scaling-stroke" d="   M 516.1949 442.1566   A 0.71 0.71 0.0 0 0 515.4800 441.4515   L 504.4402 441.5286   A 0.71 0.71 0.0 0 0 503.7352 442.2435   L 503.7651 446.5234   A 0.71 0.71 0.0 0 0 504.4800 447.2285   L 515.5198 447.1514   A 0.71 0.71 0.0 0 0 516.2248 446.4365   L 516.1949 442.1566"/>
<path stroke="#a5a5a6" vector-effect="non-scaling-stroke" d="   M 537.24 442.20   A 0.58 0.58 0.0 0 0 536.66 441.62   L 525.76 441.62   A 0.58 0.58 0.0 0 0 525.18 442.20   L 525.18 446.56   A 0.58 0.58 0.0 0 0 525.76 447.14   L 536.66 447.14   A 0.58 0.58 0.0 0 0 537.24 446.56   L 537.24 442.20"/>
<path stroke="#f9cf98" vector-effect="non-scaling-stroke" d="   M 522.69 496.53   Q 528.07 491.21 529.41 489.68   C 534.16 484.25 540.57 483.81 545.64 489.12   Q 550.71 494.42 554.94 499.22   A 0.71 0.71 0.0 0 0 556.03 499.18   C 561.64 491.70 562.71 481.40 557.32 473.76   Q 550.07 463.48 538.27 464.37   Q 529.24 465.05 524.24 470.69   C 517.56 478.23 515.92 488.02 521.52 496.41   A 0.77 0.76 -39.0 0 0 522.69 496.53"/>
<path stroke="#a5a5a6" vector-effect="non-scaling-stroke" d="   M 439.2601 474.1000   A 0.68 0.68 0.0 0 0 438.5753 473.4248   L 434.1754 473.4555   A 0.68 0.68 0.0 0 0 433.5002 474.1402   L 433.5799 485.5600   A 0.68 0.68 0.0 0 0 434.2647 486.2352   L 438.6646 486.2045   A 0.68 0.68 0.0 0 0 439.3398 485.5198   L 439.2601 474.1000"/>
<path stroke="#a5a5a6" vector-effect="non-scaling-stroke" d="   M 586.46 474.27   A 0.96 0.96 0.0 0 0 585.50 473.31   L 581.40 473.31   A 0.96 0.96 0.0 0 0 580.44 474.27   L 580.44 485.35   A 0.96 0.96 0.0 0 0 581.40 486.31   L 585.50 486.31   A 0.96 0.96 0.0 0 0 586.46 485.35   L 586.46 474.27"/>
<path stroke="#a5a5a6" vector-effect="non-scaling-stroke" d="   M 569.36 567.51   Q 569.52 553.23 569.44 534.69   C 569.43 532.66 569.69 530.43 568.78 528.96   C 566.44 525.21 561.87 521.06 558.43 517.03   Q 551.30 508.68 542.15 498.37   C 539.66 495.55 537.52 493.94 534.48 497.02   Q 529.27 502.33 520.32 511.35   A 0.94 0.94 0.0 0 1 518.95 511.30   Q 507.11 497.77 498.29 486.90   C 495.96 484.03 494.62 482.99 491.23 483.24   Q 489.56 483.36 486.59 486.93   Q 471.85 504.63 452.22 527.97   Q 450.78 529.68 450.79 531.33   Q 450.98 551.57 450.83 567.58   A 0.61 0.61 0.0 0 0 451.44 568.19   L 568.67 568.19   A 0.69 0.69 0.0 0 0 569.36 567.51"/>
<path stroke="#a5a5a6" vector-effect="non-scaling-stroke" d="   M 586.4801 496.5847   A 0.88 0.88 0.0 0 0 585.5955 495.7094   L 581.4956 495.7308   A 0.88 0.88 0.0 0 0 580.6202 496.6154   L 580.6799 508.0153   A 0.88 0.88 0.0 0 0 581.5645 508.8906   L 585.6644 508.8692   A 0.88 0.88 0.0 0 0 586.5398 507.9846   L 586.4801 496.5847"/>
<path stroke="#a5a5a6" vector-effect="non-scaling-stroke" d="   M 439.2302 496.5849   A 0.57 0.57 0.0 0 0 438.6612 496.0139   L 434.2212 496.0061   A 0.57 0.57 0.0 0 0 433.6502 496.5751   L 433.6298 508.2751   A 0.57 0.57 0.0 0 0 434.1988 508.8461   L 438.6388 508.8539   A 0.57 0.57 0.0 0 0 439.2098 508.2849   L 439.2302 496.5849"/>
<path stroke="#a5a5a6" vector-effect="non-scaling-stroke" d="   M 586.5696 519.2551   A 0.97 0.97 0.0 0 0 585.6013 518.2834   L 581.6613 518.2766   A 0.97 0.97 0.0 0 0 580.6896 519.2449   L 580.6704 530.2449   A 0.97 0.97 0.0 0 0 581.6387 531.2166   L 585.5787 531.2234   A 0.97 0.97 0.0 0 0 586.5504 530.2551   L 586.5696 519.2551"/>
<path stroke="#a5a5a6" vector-effect="non-scaling-stroke" d="   M 439.1695 519.1603   A 0.58 0.58 0.0 0 0 438.5875 518.5823   L 434.1475 518.5978   A 0.58 0.58 0.0 0 0 433.5696 519.1798   L 433.6105 530.8997   A 0.58 0.58 0.0 0 0 434.1925 531.4777   L 438.6325 531.4622   A 0.58 0.58 0.0 0 0 439.2104 530.8802   L 439.1695 519.1603"/>
<path stroke="#a5a5a6" vector-effect="non-scaling-stroke" d="   M 586.5198 541.5200   A 0.70 0.70 0.0 0 0 585.8223 540.8176   L 581.5023 540.8025   A 0.70 0.70 0.0 0 0 580.7998 541.5001   L 580.7602 552.8600   A 0.70 0.70 0.0 0 0 581.4577 553.5624   L 585.7777 553.5775   A 0.70 0.70 0.0 0 0 586.4802 552.8799   L 586.5198 541.5200"/>
<path stroke="#a5a5a6" vector-effect="non-scaling-stroke" d="   M 439.2901 541.7651   A 0.70 0.70 0.0 0 0 438.5865 541.0688   L 434.2665 541.0914   A 0.70 0.70 0.0 0 0 433.5702 541.7951   L 433.6299 553.1949   A 0.70 0.70 0.0 0 0 434.3335 553.8912   L 438.6535 553.8686   A 0.70 0.70 0.0 0 0 439.3498 553.1649   L 439.2901 541.7651"/>
<path stroke="#a5a5a6" vector-effect="non-scaling-stroke" d="   M 439.68 579.05   Q 439.51 578.88 439.51 578.79   Q 439.41 573.10 439.51 566.88   A 0.93 0.93 0.0 0 0 438.58 565.94   L 433.98 565.91   A 0.91 0.91 0.0 0 0 433.06 566.84   Q 433.25 575.73 433.23 585.03   Q 433.23 585.20 433.40 585.37   Q 433.59 585.56 433.77 585.56   Q 443.06 585.52 451.96 585.67   A 0.91 0.91 0.0 0 0 452.88 584.75   L 452.84 580.15   A 0.93 0.93 0.0 0 0 451.89 579.23   Q 445.68 579.35 439.98 579.26   Q 439.89 579.26 439.68 579.05"/>
<path stroke="#a5a5a6" vector-effect="non-scaling-stroke" d="   M 580.56 578.98   Q 580.35 579.19 580.26 579.20   Q 574.58 579.33 568.38 579.26   A 0.93 0.93 0.0 0 0 567.44 580.19   L 567.44 584.78   A 0.91 0.91 0.0 0 0 568.37 585.69   Q 577.24 585.46 586.52 585.43   Q 586.69 585.43 586.88 585.23   Q 587.05 585.06 587.05 584.89   Q 586.95 575.62 587.06 566.74   A 0.91 0.91 0.0 0 0 586.14 565.83   L 581.55 565.89   A 0.93 0.93 0.0 0 0 580.63 566.84   Q 580.79 573.04 580.73 578.72   Q 580.73 578.81 580.56 578.98"/>
<path stroke="#a5a5a6" vector-effect="non-scaling-stroke" d="   M 473.4421 580.1491   A 0.56 0.56 0.0 0 0 472.8802 579.5911   L 462.0202 579.6290   A 0.56 0.56 0.0 0 0 461.4622 580.1909   L 461.4779 584.6909   A 0.56 0.56 0.0 0 0 462.0398 585.2489   L 472.8998 585.2110   A 0.56 0.56 0.0 0 0 473.4578 584.6491   L 473.4421 580.1491"/>
<path stroke="#a5a5a6" vector-effect="non-scaling-stroke" d="   M 559.0762 580.2693   A 0.71 0.71 0.0 0 0 558.3650 579.5605   L 547.5250 579.5795   A 0.71 0.71 0.0 0 0 546.8162 580.2907   L 546.8238 584.6307   A 0.71 0.71 0.0 0 0 547.5350 585.3395   L 558.3750 585.3205   A 0.71 0.71 0.0 0 0 559.0838 584.6093   L 559.0762 580.2693"/>
<path stroke="#a5a5a6" vector-effect="non-scaling-stroke" d="   M 494.8428 580.4190   A 0.72 0.72 0.0 0 0 494.1203 579.7015   L 483.5004 579.7386   A 0.72 0.72 0.0 0 0 482.7829 580.4611   L 482.7972 584.5610   A 0.72 0.72 0.0 0 0 483.5197 585.2785   L 494.1396 585.2414   A 0.72 0.72 0.0 0 0 494.8571 584.5189   L 494.8428 580.4190"/>
<path stroke="#a5a5a6" vector-effect="non-scaling-stroke" d="   M 516.3460 580.2093   A 0.51 0.51 0.0 0 0 515.8351 579.7002   L 504.5751 579.7198   A 0.51 0.51 0.0 0 0 504.0660 580.2307   L 504.0740 584.7907   A 0.51 0.51 0.0 0 0 504.5849 585.2998   L 515.8449 585.2802   A 0.51 0.51 0.0 0 0 516.3540 584.7693   L 516.3460 580.2093"/>
<path stroke="#a5a5a6" vector-effect="non-scaling-stroke" d="   M 537.2661 580.1797   A 0.50 0.50 0.0 0 0 536.7652 579.6805   L 525.9052 579.6995   A 0.50 0.50 0.0 0 0 525.4061 580.2004   L 525.4139 584.7003   A 0.50 0.50 0.0 0 0 525.9148 585.1995   L 536.7748 585.1805   A 0.50 0.50 0.0 0 0 537.2739 584.6796   L 537.2661 580.1797"/>
</g>
<path fill="#4d4e4f" d="   M 678.50 513.73   Q 678.50 519.16 678.47 524.55   Q 678.44 530.98 677.17 533.21   Q 675.13 536.80 670.06 538.07   Q 669.73 538.16 644.45 543.03   A 0.66 0.65 -88.5 0 0 643.94 543.52   Q 639.28 564.76 627.83 583.31   A 1.19 1.19 0.0 0 0 627.83 584.55   Q 635.54 597.04 641.14 605.62   Q 644.50 610.78 642.92 615.66   Q 642.03 618.39 636.30 623.78   Q 625.48 633.95 621.59 638.08   Q 614.55 645.58 606.20 640.28   Q 600.17 636.45 583.94 626.24   A 0.79 0.78 -45.3 0 0 583.10 626.25   Q 563.62 638.91 541.36 643.88   A 0.89 0.87 -0.1 0 0 540.68 644.55   Q 536.89 661.01 535.42 668.00   Q 534.11 674.29 532.31 676.13   Q 528.89 679.63 524.49 679.61   Q 518.16 679.58 495.52 679.57   Q 491.15 679.56 487.93 676.25   Q 486.29 674.57 484.90 668.38   Q 481.31 652.47 479.61 644.72   A 0.87 0.86 89.9 0 0 478.96 644.06   Q 456.82 638.91 437.46 626.40   A 0.98 0.98 0.0 0 0 436.40 626.40   Q 418.00 637.88 417.15 638.47   Q 411.44 642.42 408.43 642.48   Q 403.09 642.57 399.61 639.13   Q 391.64 631.24 380.69 620.60   Q 376.92 616.93 377.09 612.41   Q 377.20 609.49 380.61 604.08   Q 388.81 591.05 392.89 584.62   A 1.34 1.33 -44.8 0 0 392.90 583.20   Q 381.57 564.63 376.80 544.01   A 0.93 0.92 89.9 0 0 376.11 543.31   Q 363.31 540.44 354.12 538.73   C 348.07 537.60 344.95 536.47 342.86 531.50   Q 342.32 530.20 342.32 525.92   Q 342.32 521.45 342.32 513.67   Q 342.32 505.89 342.32 501.41   Q 342.33 497.13 342.87 495.83   C 344.96 490.87 348.08 489.74 354.13 488.61   Q 363.32 486.90 376.12 484.04   A 0.93 0.92 -89.9 0 0 376.81 483.34   Q 381.59 462.72 392.93 444.15   A 1.34 1.33 44.8 0 0 392.92 442.73   Q 388.84 436.30 380.65 423.27   Q 377.24 417.86 377.13 414.94   Q 376.96 410.42 380.73 406.75   Q 391.69 396.11 399.66 388.23   Q 403.14 384.79 408.48 384.88   Q 411.49 384.94 417.20 388.89   Q 418.05 389.48 436.44 400.97   A 0.98 0.98 0.0 0 0 437.50 400.97   Q 456.87 388.47 479.01 383.33   A 0.87 0.86 -89.9 0 0 479.66 382.67   Q 481.36 374.92 484.96 359.01   Q 486.35 352.82 487.99 351.14   Q 491.21 347.83 495.58 347.82   Q 518.22 347.82 524.55 347.80   Q 528.95 347.78 532.37 351.28   Q 534.17 353.12 535.48 359.41   Q 536.95 366.40 540.73 382.86   A 0.89 0.87 0.1 0 0 541.41 383.53   Q 563.67 388.51 583.14 401.18   A 0.79 0.78 45.4 0 0 583.98 401.19   Q 600.22 390.98 606.25 387.16   Q 614.60 381.86 621.64 389.36   Q 625.53 393.49 636.34 403.67   Q 642.07 409.06 642.96 411.79   Q 644.54 416.67 641.18 421.83   Q 635.57 430.41 627.86 442.90   A 1.19 1.19 0.0 0 0 627.86 444.14   Q 639.30 462.69 643.95 483.93   A 0.66 0.65 88.6 0 0 644.46 484.42   Q 669.74 489.30 670.07 489.39   Q 675.14 490.66 677.18 494.25   Q 678.45 496.49 678.48 502.91   Q 678.50 508.30 678.50 513.73   Z   M 510.06 616.42   C 531.72 616.43 553.16 609.56 570.87 596.87   A 2.71 2.64 -62.1 0 1 572.42 596.37   L 597.56 596.37   A 0.59 0.59 0.0 0 0 598.15 595.78   L 598.15 572.35   A 2.80 2.77 61.5 0 1 598.58 570.86   Q 602.65 564.37 604.44 561.13   C 614.02 543.75 617.82 521.84 615.55 502.06   Q 612.60 476.46 598.74 456.29   A 2.94 2.87 -62.8 0 1 598.23 454.64   L 598.23 431.00   A 0.39 0.39 0.0 0 0 597.84 430.61   L 572.39 430.61   A 2.18 2.16 62.5 0 1 571.13 430.21   C 553.28 417.43 532.30 410.48 510.18 410.47   C 488.06 410.46 467.08 417.38 449.21 430.14   A 2.18 2.16 -62.4 0 1 447.95 430.54   L 422.50 430.51   A 0.39 0.39 0.0 0 0 422.11 430.90   L 422.08 454.54   A 2.94 2.87 62.9 0 1 421.57 456.19   Q 407.69 476.34 404.71 501.94   C 402.42 521.72 406.19 543.63 415.75 561.02   Q 417.54 564.27 421.60 570.76   A 2.80 2.77 -61.4 0 1 422.03 572.25   L 422.00 595.68   A 0.59 0.59 0.0 0 0 422.59 596.27   L 447.73 596.30   A 2.71 2.64 62.2 0 1 449.28 596.80   C 466.98 609.51 488.41 616.41 510.06 616.42   Z"/>
<path fill="none" d="   M 510.18 410.47   C 532.30 410.48 553.28 417.43 571.13 430.21   A 2.18 2.16 62.5 0 0 572.39 430.61   L 597.84 430.61   A 0.39 0.39 0.0 0 1 598.23 431.00   L 598.23 454.64   A 2.94 2.87 -62.8 0 0 598.74 456.29   Q 612.60 476.46 615.55 502.06   C 617.82 521.84 614.02 543.75 604.44 561.13   Q 602.65 564.37 598.58 570.86   A 2.80 2.77 61.5 0 0 598.15 572.35   L 598.15 595.78   A 0.59 0.59 0.0 0 1 597.56 596.37   L 572.42 596.37   A 2.71 2.64 -62.1 0 0 570.87 596.87   C 553.16 609.56 531.72 616.43 510.06 616.42   C 488.41 616.41 466.98 609.51 449.28 596.80   A 2.71 2.64 62.2 0 0 447.73 596.30   L 422.59 596.27   A 0.59 0.59 0.0 0 1 422.00 595.68   L 422.03 572.25   A 2.80 2.77 -61.4 0 0 421.60 570.76   Q 417.54 564.27 415.75 561.02   C 406.19 543.63 402.42 521.72 404.71 501.94   Q 407.69 476.34 421.57 456.19   A 2.94 2.87 62.9 0 0 422.08 454.54   L 422.11 430.90   A 0.39 0.39 0.0 0 1 422.50 430.51   L 447.95 430.54   A 2.18 2.16 -62.4 0 0 449.21 430.14   C 467.08 417.38 488.06 410.46 510.18 410.47   Z   M 580.49 447.76   Q 580.65 447.93 580.65 448.02   Q 580.71 453.68 580.55 459.86   A 0.93 0.93 0.0 0 0 581.46 460.80   L 586.03 460.87   A 0.91 0.91 0.0 0 0 586.95 459.96   Q 586.85 451.12 586.95 441.88   Q 586.96 441.70 586.79 441.54   Q 586.60 441.34 586.42 441.34   Q 577.18 441.30 568.35 441.06   A 0.91 0.91 0.0 0 0 567.42 441.97   L 567.41 446.54   A 0.93 0.93 0.0 0 0 568.35 447.47   Q 574.53 447.41 580.19 447.54   Q 580.28 447.55 580.49 447.76   Z   M 439.70 447.85   Q 439.91 447.63 440.00 447.63   Q 445.71 447.48 451.95 447.54   A 0.93 0.93 0.0 0 0 452.89 446.60   L 452.88 441.99   A 0.92 0.91 -0.7 0 0 451.94 441.07   Q 443.03 441.32 433.70 441.38   Q 433.53 441.38 433.33 441.58   Q 433.17 441.74 433.17 441.92   Q 433.29 451.24 433.20 460.16   A 0.92 0.91 89.7 0 0 434.13 461.08   L 438.74 461.01   A 0.93 0.93 0.0 0 0 439.66 460.05   Q 439.49 453.82 439.53 448.11   Q 439.53 448.02 439.70 447.85   Z   M 559.1157 442.3566   A 0.97 0.97 0.0 0 0 558.1390 441.3934   L 547.6193 441.4668   A 0.97 0.97 0.0 0 0 546.6560 442.4435   L 546.6843 446.4834   A 0.97 0.97 0.0 0 0 547.6610 447.4466   L 558.1807 447.3732   A 0.97 0.97 0.0 0 0 559.1440 446.3965   L 559.1157 442.3566   Z   M 473.3573 442.3410   A 0.76 0.76 0.0 0 0 472.6000 441.5784   L 462.0800 441.5417   A 0.76 0.76 0.0 0 0 461.3174 442.2990   L 461.3027 446.4990   A 0.76 0.76 0.0 0 0 462.0600 447.2616   L 472.5800 447.2983   A 0.76 0.76 0.0 0 0 473.3426 446.5410   L 473.3573 442.3410   Z   M 494.7424 442.1991   A 0.60 0.60 0.0 0 0 494.1403 441.6012   L 483.3603 441.6388   A 0.60 0.60 0.0 0 0 482.7624 442.2409   L 482.7776 446.6009   A 0.60 0.60 0.0 0 0 483.3797 447.1988   L 494.1597 447.1612   A 0.60 0.60 0.0 0 0 494.7576 446.5591   L 494.7424 442.1991   Z   M 516.1949 442.1566   A 0.71 0.71 0.0 0 0 515.4800 441.4515   L 504.4402 441.5286   A 0.71 0.71 0.0 0 0 503.7352 442.2435   L 503.7651 446.5234   A 0.71 0.71 0.0 0 0 504.4800 447.2285   L 515.5198 447.1514   A 0.71 0.71 0.0 0 0 516.2248 446.4365   L 516.1949 442.1566   Z   M 537.24 442.20   A 0.58 0.58 0.0 0 0 536.66 441.62   L 525.76 441.62   A 0.58 0.58 0.0 0 0 525.18 442.20   L 525.18 446.56   A 0.58 0.58 0.0 0 0 525.76 447.14   L 536.66 447.14   A 0.58 0.58 0.0 0 0 537.24 446.56   L 537.24 442.20   Z   M 522.69 496.53   Q 528.07 491.21 529.41 489.68   C 534.16 484.25 540.57 483.81 545.64 489.12   Q 550.71 494.42 554.94 499.22   A 0.71 0.71 0.0 0 0 556.03 499.18   C 561.64 491.70 562.71 481.40 557.32 473.76   Q 550.07 463.48 538.27 464.37   Q 529.24 465.05 524.24 470.69   C 517.56 478.23 515.92 488.02 521.52 496.41   A 0.77 0.76 -39.0 0 0 522.69 496.53   Z   M 439.2601 474.1000   A 0.68 0.68 0.0 0 0 438.5753 473.4248   L 434.1754 473.4555   A 0.68 0.68 0.0 0 0 433.5002 474.1402   L 433.5799 485.5600   A 0.68 0.68 0.0 0 0 434.2647 486.2352   L 438.6646 486.2045   A 0.68 0.68 0.0 0 0 439.3398 485.5198   L 439.2601 474.1000   Z   M 586.46 474.27   A 0.96 0.96 0.0 0 0 585.50 473.31   L 581.40 473.31   A 0.96 0.96 0.0 0 0 580.44 474.27   L 580.44 485.35   A 0.96 0.96 0.0 0 0 581.40 486.31   L 585.50 486.31   A 0.96 0.96 0.0 0 0 586.46 485.35   L 586.46 474.27   Z   M 569.36 567.51   Q 569.52 553.23 569.44 534.69   C 569.43 532.66 569.69 530.43 568.78 528.96   C 566.44 525.21 561.87 521.06 558.43 517.03   Q 551.30 508.68 542.15 498.37   C 539.66 495.55 537.52 493.94 534.48 497.02   Q 529.27 502.33 520.32 511.35   A 0.94 0.94 0.0 0 1 518.95 511.30   Q 507.11 497.77 498.29 486.90   C 495.96 484.03 494.62 482.99 491.23 483.24   Q 489.56 483.36 486.59 486.93   Q 471.85 504.63 452.22 527.97   Q 450.78 529.68 450.79 531.33   Q 450.98 551.57 450.83 567.58   A 0.61 0.61 0.0 0 0 451.44 568.19   L 568.67 568.19   A 0.69 0.69 0.0 0 0 569.36 567.51   Z   M 586.4801 496.5847   A 0.88 0.88 0.0 0 0 585.5955 495.7094   L 581.4956 495.7308   A 0.88 0.88 0.0 0 0 580.6202 496.6154   L 580.6799 508.0153   A 0.88 0.88 0.0 0 0 581.5645 508.8906   L 585.6644 508.8692   A 0.88 0.88 0.0 0 0 586.5398 507.9846   L 586.4801 496.5847   Z   M 439.2302 496.5849   A 0.57 0.57 0.0 0 0 438.6612 496.0139   L 434.2212 496.0061   A 0.57 0.57 0.0 0 0 433.6502 496.5751   L 433.6298 508.2751   A 0.57 0.57 0.0 0 0 434.1988 508.8461   L 438.6388 508.8539   A 0.57 0.57 0.0 0 0 439.2098 508.2849   L 439.2302 496.5849   Z   M 586.5696 519.2551   A 0.97 0.97 0.0 0 0 585.6013 518.2834   L 581.6613 518.2766   A 0.97 0.97 0.0 0 0 580.6896 519.2449   L 580.6704 530.2449   A 0.97 0.97 0.0 0 0 581.6387 531.2166   L 585.5787 531.2234   A 0.97 0.97 0.0 0 0 586.5504 530.2551   L 586.5696 519.2551   Z   M 439.1695 519.1603   A 0.58 0.58 0.0 0 0 438.5875 518.5823   L 434.1475 518.5978   A 0.58 0.58 0.0 0 0 433.5696 519.1798   L 433.6105 530.8997   A 0.58 0.58 0.0 0 0 434.1925 531.4777   L 438.6325 531.4622   A 0.58 0.58 0.0 0 0 439.2104 530.8802   L 439.1695 519.1603   Z   M 586.5198 541.5200   A 0.70 0.70 0.0 0 0 585.8223 540.8176   L 581.5023 540.8025   A 0.70 0.70 0.0 0 0 580.7998 541.5001   L 580.7602 552.8600   A 0.70 0.70 0.0 0 0 581.4577 553.5624   L 585.7777 553.5775   A 0.70 0.70 0.0 0 0 586.4802 552.8799   L 586.5198 541.5200   Z   M 439.2901 541.7651   A 0.70 0.70 0.0 0 0 438.5865 541.0688   L 434.2665 541.0914   A 0.70 0.70 0.0 0 0 433.5702 541.7951   L 433.6299 553.1949   A 0.70 0.70 0.0 0 0 434.3335 553.8912   L 438.6535 553.8686   A 0.70 0.70 0.0 0 0 439.3498 553.1649   L 439.2901 541.7651   Z   M 439.68 579.05   Q 439.51 578.88 439.51 578.79   Q 439.41 573.10 439.51 566.88   A 0.93 0.93 0.0 0 0 438.58 565.94   L 433.98 565.91   A 0.91 0.91 0.0 0 0 433.06 566.84   Q 433.25 575.73 433.23 585.03   Q 433.23 585.20 433.40 585.37   Q 433.59 585.56 433.77 585.56   Q 443.06 585.52 451.96 585.67   A 0.91 0.91 0.0 0 0 452.88 584.75   L 452.84 580.15   A 0.93 0.93 0.0 0 0 451.89 579.23   Q 445.68 579.35 439.98 579.26   Q 439.89 579.26 439.68 579.05   Z   M 580.56 578.98   Q 580.35 579.19 580.26 579.20   Q 574.58 579.33 568.38 579.26   A 0.93 0.93 0.0 0 0 567.44 580.19   L 567.44 584.78   A 0.91 0.91 0.0 0 0 568.37 585.69   Q 577.24 585.46 586.52 585.43   Q 586.69 585.43 586.88 585.23   Q 587.05 585.06 587.05 584.89   Q 586.95 575.62 587.06 566.74   A 0.91 0.91 0.0 0 0 586.14 565.83   L 581.55 565.89   A 0.93 0.93 0.0 0 0 580.63 566.84   Q 580.79 573.04 580.73 578.72   Q 580.73 578.81 580.56 578.98   Z   M 473.4421 580.1491   A 0.56 0.56 0.0 0 0 472.8802 579.5911   L 462.0202 579.6290   A 0.56 0.56 0.0 0 0 461.4622 580.1909   L 461.4779 584.6909   A 0.56 0.56 0.0 0 0 462.0398 585.2489   L 472.8998 585.2110   A 0.56 0.56 0.0 0 0 473.4578 584.6491   L 473.4421 580.1491   Z   M 559.0762 580.2693   A 0.71 0.71 0.0 0 0 558.3650 579.5605   L 547.5250 579.5795   A 0.71 0.71 0.0 0 0 546.8162 580.2907   L 546.8238 584.6307   A 0.71 0.71 0.0 0 0 547.5350 585.3395   L 558.3750 585.3205   A 0.71 0.71 0.0 0 0 559.0838 584.6093   L 559.0762 580.2693   Z   M 494.8428 580.4190   A 0.72 0.72 0.0 0 0 494.1203 579.7015   L 483.5004 579.7386   A 0.72 0.72 0.0 0 0 482.7829 580.4611   L 482.7972 584.5610   A 0.72 0.72 0.0 0 0 483.5197 585.2785   L 494.1396 585.2414   A 0.72 0.72 0.0 0 0 494.8571 584.5189   L 494.8428 580.4190   Z   M 516.3460 580.2093   A 0.51 0.51 0.0 0 0 515.8351 579.7002   L 504.5751 579.7198   A 0.51 0.51 0.0 0 0 504.0660 580.2307   L 504.0740 584.7907   A 0.51 0.51 0.0 0 0 504.5849 585.2998   L 515.8449 585.2802   A 0.51 0.51 0.0 0 0 516.3540 584.7693   L 516.3460 580.2093   Z   M 537.2661 580.1797   A 0.50 0.50 0.0 0 0 536.7652 579.6805   L 525.9052 579.6995   A 0.50 0.50 0.0 0 0 525.4061 580.2004   L 525.4139 584.7003   A 0.50 0.50 0.0 0 0 525.9148 585.1995   L 536.7748 585.1805   A 0.50 0.50 0.0 0 0 537.2739 584.6796   L 537.2661 580.1797   Z"/>
<path fill="#4d4e4f" d="   M 580.49 447.76   Q 580.28 447.55 580.19 447.54   Q 574.53 447.41 568.35 447.47   A 0.93 0.93 0.0 0 1 567.41 446.54   L 567.42 441.97   A 0.91 0.91 0.0 0 1 568.35 441.06   Q 577.18 441.30 586.42 441.34   Q 586.60 441.34 586.79 441.54   Q 586.96 441.70 586.95 441.88   Q 586.85 451.12 586.95 459.96   A 0.91 0.91 0.0 0 1 586.03 460.87   L 581.46 460.80   A 0.93 0.93 0.0 0 1 580.55 459.86   Q 580.71 453.68 580.65 448.02   Q 580.65 447.93 580.49 447.76   Z"/>
<path fill="#4d4e4f" d="   M 439.70 447.85   Q 439.53 448.02 439.53 448.11   Q 439.49 453.82 439.66 460.05   A 0.93 0.93 0.0 0 1 438.74 461.01   L 434.13 461.08   A 0.92 0.91 89.7 0 1 433.20 460.16   Q 433.29 451.24 433.17 441.92   Q 433.17 441.74 433.33 441.58   Q 433.53 441.38 433.70 441.38   Q 443.03 441.32 451.94 441.07   A 0.92 0.91 -0.7 0 1 452.88 441.99   L 452.89 446.60   A 0.93 0.93 0.0 0 1 451.95 447.54   Q 445.71 447.48 440.00 447.63   Q 439.91 447.63 439.70 447.85   Z"/>
<path fill="#4d4e4f" d="   M 559.1440 446.3965   A 0.97 0.97 0.0 0 1 558.1807 447.3732   L 547.6610 447.4466   A 0.97 0.97 0.0 0 1 546.6843 446.4834   L 546.6560 442.4435   A 0.97 0.97 0.0 0 1 547.6193 441.4668   L 558.1390 441.3934   A 0.97 0.97 0.0 0 1 559.1157 442.3566   L 559.1440 446.3965   Z"/>
<path fill="#4d4e4f" d="   M 473.3426 446.5410   A 0.76 0.76 0.0 0 1 472.5800 447.2983   L 462.0600 447.2616   A 0.76 0.76 0.0 0 1 461.3027 446.4990   L 461.3174 442.2990   A 0.76 0.76 0.0 0 1 462.0800 441.5417   L 472.6000 441.5784   A 0.76 0.76 0.0 0 1 473.3573 442.3410   L 473.3426 446.5410   Z"/>
<path fill="#4d4e4f" d="   M 494.7576 446.5591   A 0.60 0.60 0.0 0 1 494.1597 447.1612   L 483.3797 447.1988   A 0.60 0.60 0.0 0 1 482.7776 446.6009   L 482.7624 442.2409   A 0.60 0.60 0.0 0 1 483.3603 441.6388   L 494.1403 441.6012   A 0.60 0.60 0.0 0 1 494.7424 442.1991   L 494.7576 446.5591   Z"/>
<path fill="#4d4e4f" d="   M 516.2248 446.4365   A 0.71 0.71 0.0 0 1 515.5198 447.1514   L 504.4800 447.2285   A 0.71 0.71 0.0 0 1 503.7651 446.5234   L 503.7352 442.2435   A 0.71 0.71 0.0 0 1 504.4402 441.5286   L 515.4800 441.4515   A 0.71 0.71 0.0 0 1 516.1949 442.1566   L 516.2248 446.4365   Z"/>
<path fill="#4d4e4f" d="   M 537.24 446.56   A 0.58 0.58 0.0 0 1 536.66 447.14   L 525.76 447.14   A 0.58 0.58 0.0 0 1 525.18 446.56   L 525.18 442.20   A 0.58 0.58 0.0 0 1 525.76 441.62   L 536.66 441.62   A 0.58 0.58 0.0 0 1 537.24 442.20   L 537.24 446.56   Z"/>
<path fill="#f5a134" d="   M 522.69 496.53   A 0.77 0.76 -39.0 0 1 521.52 496.41   C 515.92 488.02 517.56 478.23 524.24 470.69   Q 529.24 465.05 538.27 464.37   Q 550.07 463.48 557.32 473.76   C 562.71 481.40 561.64 491.70 556.03 499.18   A 0.71 0.71 0.0 0 1 554.94 499.22   Q 550.71 494.42 545.64 489.12   C 540.57 483.81 534.16 484.25 529.41 489.68   Q 528.07 491.21 522.69 496.53   Z"/>
<path fill="#4d4e4f" d="   M 439.3398 485.5198   A 0.68 0.68 0.0 0 1 438.6646 486.2045   L 434.2647 486.2352   A 0.68 0.68 0.0 0 1 433.5799 485.5600   L 433.5002 474.1402   A 0.68 0.68 0.0 0 1 434.1754 473.4555   L 438.5753 473.4248   A 0.68 0.68 0.0 0 1 439.2601 474.1000   L 439.3398 485.5198   Z"/>
<path fill="#4d4e4f" d="   M 586.46 485.35   A 0.96 0.96 0.0 0 1 585.50 486.31   L 581.40 486.31   A 0.96 0.96 0.0 0 1 580.44 485.35   L 580.44 474.27   A 0.96 0.96 0.0 0 1 581.40 473.31   L 585.50 473.31   A 0.96 0.96 0.0 0 1 586.46 474.27   L 586.46 485.35   Z"/>
<path fill="#4d4e4f" d="   M 569.36 567.51   A 0.69 0.69 0.0 0 1 568.67 568.19   L 451.44 568.19   A 0.61 0.61 0.0 0 1 450.83 567.58   Q 450.98 551.57 450.79 531.33   Q 450.78 529.68 452.22 527.97   Q 471.85 504.63 486.59 486.93   Q 489.56 483.36 491.23 483.24   C 494.62 482.99 495.96 484.03 498.29 486.90   Q 507.11 497.77 518.95 511.30   A 0.94 0.94 0.0 0 0 520.32 511.35   Q 529.27 502.33 534.48 497.02   C 537.52 493.94 539.66 495.55 542.15 498.37   Q 551.30 508.68 558.43 517.03   C 561.87 521.06 566.44 525.21 568.78 528.96   C 569.69 530.43 569.43 532.66 569.44 534.69   Q 569.52 553.23 569.36 567.51   Z"/>
<path fill="#4d4e4f" d="   M 586.5398 507.9846   A 0.88 0.88 0.0 0 1 585.6644 508.8692   L 581.5645 508.8906   A 0.88 0.88 0.0 0 1 580.6799 508.0153   L 580.6202 496.6154   A 0.88 0.88 0.0 0 1 581.4956 495.7308   L 585.5955 495.7094   A 0.88 0.88 0.0 0 1 586.4801 496.5847   L 586.5398 507.9846   Z"/>
<path fill="#4d4e4f" d="   M 439.2098 508.2849   A 0.57 0.57 0.0 0 1 438.6388 508.8539   L 434.1988 508.8461   A 0.57 0.57 0.0 0 1 433.6298 508.2751   L 433.6502 496.5751   A 0.57 0.57 0.0 0 1 434.2212 496.0061   L 438.6612 496.0139   A 0.57 0.57 0.0 0 1 439.2302 496.5849   L 439.2098 508.2849   Z"/>
<path fill="#4d4e4f" d="   M 586.5504 530.2551   A 0.97 0.97 0.0 0 1 585.5787 531.2234   L 581.6387 531.2166   A 0.97 0.97 0.0 0 1 580.6704 530.2449   L 580.6896 519.2449   A 0.97 0.97 0.0 0 1 581.6613 518.2766   L 585.6013 518.2834   A 0.97 0.97 0.0 0 1 586.5696 519.2551   L 586.5504 530.2551   Z"/>
<path fill="#4d4e4f" d="   M 439.2104 530.8802   A 0.58 0.58 0.0 0 1 438.6325 531.4622   L 434.1925 531.4777   A 0.58 0.58 0.0 0 1 433.6105 530.8997   L 433.5696 519.1798   A 0.58 0.58 0.0 0 1 434.1475 518.5978   L 438.5875 518.5823   A 0.58 0.58 0.0 0 1 439.1695 519.1603   L 439.2104 530.8802   Z"/>
<path fill="#4d4e4f" d="   M 586.4802 552.8799   A 0.70 0.70 0.0 0 1 585.7777 553.5775   L 581.4577 553.5624   A 0.70 0.70 0.0 0 1 580.7602 552.8600   L 580.7998 541.5001   A 0.70 0.70 0.0 0 1 581.5023 540.8025   L 585.8223 540.8176   A 0.70 0.70 0.0 0 1 586.5198 541.5200   L 586.4802 552.8799   Z"/>
<path fill="#4d4e4f" d="   M 439.3498 553.1649   A 0.70 0.70 0.0 0 1 438.6535 553.8686   L 434.3335 553.8912   A 0.70 0.70 0.0 0 1 433.6299 553.1949   L 433.5702 541.7951   A 0.70 0.70 0.0 0 1 434.2665 541.0914   L 438.5865 541.0688   A 0.70 0.70 0.0 0 1 439.2901 541.7651   L 439.3498 553.1649   Z"/>
<path fill="#4d4e4f" d="   M 439.68 579.05   Q 439.89 579.26 439.98 579.26   Q 445.68 579.35 451.89 579.23   A 0.93 0.93 0.0 0 1 452.84 580.15   L 452.88 584.75   A 0.91 0.91 0.0 0 1 451.96 585.67   Q 443.06 585.52 433.77 585.56   Q 433.59 585.56 433.40 585.37   Q 433.23 585.20 433.23 585.03   Q 433.25 575.73 433.06 566.84   A 0.91 0.91 0.0 0 1 433.98 565.91   L 438.58 565.94   A 0.93 0.93 0.0 0 1 439.51 566.88   Q 439.41 573.10 439.51 578.79   Q 439.51 578.88 439.68 579.05   Z"/>
<path fill="#4d4e4f" d="   M 586.88 585.23   Q 586.69 585.43 586.52 585.43   Q 577.24 585.46 568.37 585.69   A 0.91 0.91 0.0 0 1 567.44 584.78   L 567.44 580.19   A 0.93 0.93 0.0 0 1 568.38 579.26   Q 574.58 579.33 580.26 579.20   Q 580.35 579.19 580.56 578.98   Q 580.73 578.81 580.73 578.72   Q 580.79 573.04 580.63 566.84   A 0.93 0.93 0.0 0 1 581.55 565.89   L 586.14 565.83   A 0.91 0.91 0.0 0 1 587.06 566.74   Q 586.95 575.62 587.05 584.89   Q 587.05 585.06 586.88 585.23   Z"/>
<path fill="#4d4e4f" d="   M 473.4578 584.6491   A 0.56 0.56 0.0 0 1 472.8998 585.2110   L 462.0398 585.2489   A 0.56 0.56 0.0 0 1 461.4779 584.6909   L 461.4622 580.1909   A 0.56 0.56 0.0 0 1 462.0202 579.6290   L 472.8802 579.5911   A 0.56 0.56 0.0 0 1 473.4421 580.1491   L 473.4578 584.6491   Z"/>
<path fill="#4d4e4f" d="   M 559.0838 584.6093   A 0.71 0.71 0.0 0 1 558.3750 585.3205   L 547.5350 585.3395   A 0.71 0.71 0.0 0 1 546.8238 584.6307   L 546.8162 580.2907   A 0.71 0.71 0.0 0 1 547.5250 579.5795   L 558.3650 579.5605   A 0.71 0.71 0.0 0 1 559.0762 580.2693   L 559.0838 584.6093   Z"/>
<path fill="#4d4e4f" d="   M 494.8571 584.5189   A 0.72 0.72 0.0 0 1 494.1396 585.2414   L 483.5197 585.2785   A 0.72 0.72 0.0 0 1 482.7972 584.5610   L 482.7829 580.4611   A 0.72 0.72 0.0 0 1 483.5004 579.7386   L 494.1203 579.7015   A 0.72 0.72 0.0 0 1 494.8428 580.4190   L 494.8571 584.5189   Z"/>
<path fill="#4d4e4f" d="   M 516.3540 584.7693   A 0.51 0.51 0.0 0 1 515.8449 585.2802   L 504.5849 585.2998   A 0.51 0.51 0.0 0 1 504.0740 584.7907   L 504.0660 580.2307   A 0.51 0.51 0.0 0 1 504.5751 579.7198   L 515.8351 579.7002   A 0.51 0.51 0.0 0 1 516.3460 580.2093   L 516.3540 584.7693   Z"/>
<path fill="#4d4e4f" d="   M 537.2739 584.6796   A 0.50 0.50 0.0 0 1 536.7748 585.1805   L 525.9148 585.1995   A 0.50 0.50 0.0 0 1 525.4139 584.7003   L 525.4061 580.2004   A 0.50 0.50 0.0 0 1 525.9052 579.6995   L 536.7652 579.6805   A 0.50 0.50 0.0 0 1 537.2661 580.1797   L 537.2739 584.6796   Z"/>
</svg>